# xmcd
#
# Track frame offsets:
#  150
#  11575
#  24840
#  40764
#  56512
#  76859
#  93809
#  109905
#  125662
#  142805
#
# Disc length: 2157 seconds
#
# Revision: 1
# Processed by: cddbd v1.5.1PL0 Copyright (c) Steve Scherf et al.
# Submitted via: Collectorz.com_Music_Collector 6.9
#
DISCID=6e086b0a
DTITLE=Various Artist - AIR Sampler No. 49
DYEAR=2005
DGENRE=Blues
TTITLE0=Kate Ceberano - At Last
TTITLE1=Renée Geyer - Evil Tonight
TTITLE2=Greg Johnson - Save Yourself
TTITLE3=Sam Hawksley - Into The Blue
TTITLE4=Andy Cowan - The River Song
TTITLE5=D'Abruzzo - Cool Threads
TTITLE6=Susie Ahern - What If I Do
TTITLE7=Rivers and Roads - Cat n' Eagle
TTITLE8=The Zarsoff Brothers - Mr. Aphrodisiac
TTITLE9=Max White - Feel The Bass
EXTD=
EXTT0=
EXTT1=
EXTT2=
EXTT3=
EXTT4=
EXTT5=
EXTT6=
EXTT7=
EXTT8=
EXTT9=
PLAYORDER=
